<?xml version="1.0" encoding="utf-8"?><svg xmlns="http://www.w3.org/2000/svg" xmlns:xlink="http://www.w3.org/1999/xlink"><symbol viewBox="0 0 26.9 32" id="apple" xmlns="http://www.w3.org/2000/svg"><path d="M26.31 24.91A17.13 17.13 0 0124.6 28a15.71 15.71 0 01-2.22 2.68A4.4 4.4 0 0119.54 32a7.3 7.3 0 01-2.62-.63 7.62 7.62 0 00-2.83-.64 7.74 7.74 0 00-2.9.64 8.76 8.76 0 01-2.5.67 4.1 4.1 0 01-2.91-1.29A16.93 16.93 0 013.47 28 19.3 19.3 0 011 23.08a17.73 17.73 0 01-1-5.81 10.55 10.55 0 011.38-5.54 8 8 0 016.85-4.05 9.27 9.27 0 013 .71 9.8 9.8 0 002.41.71 14.94 14.94 0 002.68-.83A9.07 9.07 0 0120 7.62a7.76 7.76 0 016.06 3.2 6.73 6.73 0 00-3.58 6.12A6.83 6.83 0 0024.69 22a7.79 7.79 0 002.21 1.46c-.21.47-.39 1-.59 1.42zM20.13.63a6.85 6.85 0 01-1.75 4.48 6 6 0 01-5 2.45 5.86 5.86 0 010-.61 7 7 0 011.86-4.52 7.26 7.26 0 012.25-1.7A6.62 6.62 0 0120.07 0a2.32 2.32 0 01.06.63z"/></symbol><symbol viewBox="0 0 25 33.33" id="arrow-down-o" xmlns="http://www.w3.org/2000/svg"><path d="M12.5 30.2V0m11 17l-11 13.2L1.55 17" fill="none" stroke="currentColor" stroke-miterlimit="10" stroke-width="4"/></symbol><symbol viewBox="0 0 33.33 25" id="arrow-left-o" xmlns="http://www.w3.org/2000/svg"><path d="M33.33 12.5H3.17m13.16 11l-13.16-11L16.33 1.55" fill="none" stroke="currentColor" stroke-miterlimit="10" stroke-width="4"/></symbol><symbol viewBox="0 0 33.33 25" id="arrow-right-o" xmlns="http://www.w3.org/2000/svg"><path d="M30.16 12.5H0M17 1.55l13.16 11L17 23.45" fill="none" stroke="currentColor" stroke-miterlimit="10" stroke-width="4"/></symbol><symbol viewBox="0 0 25 33.33" id="arrow-up-o" xmlns="http://www.w3.org/2000/svg"><path d="M12.5 33.33V3.17M1.55 16.33l11-13.16 11 13.16" fill="none" stroke="currentColor" stroke-miterlimit="10" stroke-width="4"/></symbol><symbol viewBox="0 0 32 24" id="check-o" xmlns="http://www.w3.org/2000/svg"><path fill="none" stroke="currentColor" stroke-miterlimit="10" d="M1.45 11.85l9.28 9.25L30.55 1.5"/></symbol><symbol viewBox="0 0 32 19.28" id="chevron-down-o" xmlns="http://www.w3.org/2000/svg"><path fill="none" stroke="currentColor" stroke-miterlimit="10" stroke-width="4" d="M1.5 1.4l14.63 15 14.37-15"/></symbol><symbol viewBox="0 0 19.28 32" id="chevron-left-o" xmlns="http://www.w3.org/2000/svg"><path fill="none" stroke="currentColor" stroke-miterlimit="10" stroke-width="4" d="M17.88 1.5l-15 14.37 15 14.63"/></symbol><symbol viewBox="0 0 19.28 32" id="chevron-right-o" xmlns="http://www.w3.org/2000/svg"><path fill="none" stroke="currentColor" stroke-miterlimit="10" stroke-width="4" d="M1.4 30.5l15-14.63L1.4 1.5"/></symbol><symbol viewBox="0 0 32 19.28" id="chevron-up-o" xmlns="http://www.w3.org/2000/svg"><path fill="none" stroke="currentColor" stroke-miterlimit="10" stroke-width="4" d="M30.5 17.88l-14.37-15-14.63 15"/></symbol><symbol fill="none" viewBox="0 0 93 20" id="cuberto" xmlns="http://www.w3.org/2000/svg"><path d="M6.823 16.483c-2.117 0-3.856-1.873-3.856-4.142 0-2.27 1.739-4.143 3.856-4.143 1.337 0 2.58.743 3.281 1.97l2.534-1.68C11.395 6.325 9.191 5 6.83 5 3.085 5 0 8.319 0 12.349s3.085 7.348 6.83 7.348c2.314 0 4.478-1.267 5.737-3.35l-2.494-1.737c-.724 1.155-1.944 1.873-3.25 1.873zM23.333 13.399c0 1.534-1.267 2.786-2.833 2.786h-.338c-1.566 0-2.833-1.244-2.833-2.786V5H14v8.512c0 3.246 2.675 5.87 5.973 5.87h.724c3.297 0 5.972-2.624 5.972-5.87V5.008h-3.328v8.39h-.008zM63.045 5H60v13.962h3.045v-6.33c0-3.328 1.991-4.62 4.486-4.628V5c-1.74 0-3.274.485-4.486 1.3V5zM78.962 18.46a6.42 6.42 0 01-3.132.824c-3.73 0-6.799-3.286-6.83-7.292V0h3.045v4.958h5.241v2.996h-5.24v4.038c.023 2.245 1.683 4.094 3.784 4.094.52 0 1.016-.113 1.472-.323l1.66 2.698zM85.862 5C82.069 5 79 8.295 79 12.349c0 4.062 3.069 7.348 6.862 7.348s6.862-3.294 6.862-7.348C92.724 8.287 89.647 5 85.862 5zm0 11.491c-2.133 0-3.864-1.857-3.864-4.142 0-2.286 1.731-4.143 3.864-4.143s3.864 1.857 3.864 4.143c0 2.285-1.731 4.142-3.864 4.142zM35.854 4.595c-1.408 0-2.723.46-3.809 1.236V0H29v11.952c0 4.062 3.069 7.348 6.862 7.348s6.862-3.294 6.862-7.348c-.008-4.07-3.077-7.357-6.87-7.357zm0 11.491c-2.133 0-3.864-1.857-3.864-4.142 0-2.286 1.732-4.143 3.864-4.143 2.133 0 3.864 1.857 3.864 4.143.008 2.285-1.724 4.142-3.864 4.142zM57.622 13.592a8.03 8.03 0 00.094-1.243c0-.42-.031-.84-.094-1.244C57.07 7.641 54.254 5 50.862 5 47.069 5 44 8.295 44 12.349c0 4.062 3.069 7.348 6.862 7.348 2.392 0 4.501-1.316 5.729-3.302l-.016-.008-2.495-1.753c-.692 1.123-1.88 1.857-3.226 1.857-1.731 0-3.195-1.219-3.69-2.899h10.458zm-6.76-5.386c1.731 0 3.195 1.22 3.69 2.9H47.18c.488-1.68 1.952-2.9 3.683-2.9z" fill="#204B45"/></symbol><symbol fill="none" viewBox="0 0 64 64" id="delivery" xmlns="http://www.w3.org/2000/svg"><circle cx="31.739" cy="31.739" r="31.135" stroke="#204B45" stroke-width="1.209"/><path d="M30.818 52.378l-.854-.092-.378 3.517-1.184-.127-.08.75 3.203.345.08-.751-1.165-.125.378-3.517zM23.69 50.825l-.734-.408-.713 1.284-.428-.238-.127-1.75-.883-.491.177 1.896c-.611-.118-1.093.126-1.41.697-.4.719-.291 1.47.612 1.972l1.422.79 2.085-3.752zm-1.812 1.531l-.64 1.152-.57-.317c-.428-.238-.53-.591-.336-.94.191-.343.553-.447 1.007-.194l.54.3zM16.705 46.15l-.528-.714-.863.276-.977-1.322.514-.749-.528-.715-2.504 3.834.488.662 4.398-1.271zm-2.119-.201l-1.693.536-.007-.01 1.01-1.46.69.934zM11.895 37.893l-.237-.831-4.128 1.176.237.831 4.128-1.176zM10.674 32.067l.08-.842-2.822-.27.001-.011 3.003-1.627.081-.849-4.273-.407-.08.837 2.883.274-.001.012L6.48 30.83l-.079.83 4.273.407zM16.034 17.356l.598-.616-2.537-2.464.83-.854-.542-.527-2.245 2.312.542.526.817-.84 2.537 2.463zM21.644 12.7l.774-.328-.572-1.353.451-.19 1.458.978.93-.393-1.604-1.029c.47-.408.575-.938.32-1.54-.32-.757-.978-1.135-1.93-.732l-1.498.633 1.671 3.954zm-.09-2.371l-.513-1.214.601-.254c.451-.191.792-.053.947.315.153.362.012.71-.467.913l-.568.24zM29.63 10.077l.889.024.314-.85 1.643.045.273.867.888.024-1.477-4.335-.822-.022-1.708 4.247zm1.464-1.545l.62-1.664h.013l.528 1.696-1.16-.032zM39.1 11.373l.802.326 1.617-3.976-.801-.326-1.617 3.976zM44.44 14l.615.582 1.95-2.058.01.009-.569 3.368.619.586 2.953-3.115-.61-.578-1.992 2.101-.01-.008L48 11.46l-.605-.574L44.44 14zM52.73 27.285l.116.85 3.504-.48.162 1.18.748-.103-.438-3.193-.748.103.16 1.162-3.505.48zM52.937 34.576l-.22.811 1.419.383-.128.473-1.669.545-.263.975 1.798-.63c.033.623.386 1.031 1.016 1.202.794.214 1.497-.072 1.767-1.07l.424-1.57-4.144-1.119zm1.923 1.39l1.272.343-.17.63c-.128.473-.447.657-.832.553-.38-.103-.567-.43-.431-.931l.16-.595zM50.085 42.482l-.566.684.476.771-1.048 1.267-.85-.319-.567.685 4.324 1.507.525-.634-2.294-3.961zm.315 2.104l.929 1.514-.008.01-1.661-.63.74-.894zM43.232 49.142l-.75.43 2.136 3.723.75-.43-2.136-3.723zM37.872 51.73l-.837.126.42 2.804-.013.002-2.303-2.523-.843.127.635 4.245.831-.125-.428-2.864.012-.002 2.336 2.58.825-.124-.635-4.245z" fill="#204B45"/></symbol><symbol viewBox="0 0 32 32" id="dribbble" xmlns="http://www.w3.org/2000/svg"><path d="M16 0a16 16 0 1016 16A16 16 0 0016 0zm10.43 7.55a13.38 13.38 0 013 8 22.6 22.6 0 00-9-.09c-.48-1.12-1-2.2-1.48-3.21a26.68 26.68 0 007.48-4.7zm-1.81-1.84A23.78 23.78 0 0117.75 10a62.59 62.59 0 00-4.55-7.14 13.57 13.57 0 012.8-.29 13.35 13.35 0 018.62 3.14zm-14-2a60.23 60.23 0 014.68 7.22 42.76 42.76 0 01-12.36 1.94 13.5 13.5 0 017.67-9.17zm-8 11.75h.08a46.59 46.59 0 008.14-.75 39.89 39.89 0 005.7-1.47c.47.92.93 1.9 1.38 2.93a24 24 0 00-6.28 3.11 28.44 28.44 0 00-5.84 5.4A13.35 13.35 0 012.57 16c0-.18.01-.37.01-.55zm5 11a25.86 25.86 0 015.52-5.13 21.88 21.88 0 015.72-2.82 49.37 49.37 0 012.7 9.7A13.21 13.21 0 0116 29.43a13.35 13.35 0 01-8.39-2.96zm16.31.37a53.48 53.48 0 00-2.53-8.92 20.31 20.31 0 017.86.26 13.46 13.46 0 01-5.34 8.67z"/></symbol><symbol viewBox="0 0 16.76 32" id="facebook" xmlns="http://www.w3.org/2000/svg"><path d="M13.71 5.33h3.05V.15C16.3.15 14.48 0 12.34 0 7.92 0 5 2.59 5 7.47v4.26H0v5.64h5V32h6V17.37h4.88l.76-5.64h-5.82V8.08c0-1.68.46-2.75 2.89-2.75z"/></symbol><symbol viewBox="0 0 32 32" id="github" xmlns="http://www.w3.org/2000/svg"><path d="M16.05 0A16.22 16.22 0 000 16.43 16.38 16.38 0 0011 32c.86.11 1.07-.33 1.07-.76v-2.87c-4.49 1-5.45-2.19-5.45-2.19a4.63 4.63 0 00-1.82-2.41c-1.5-1 .1-1 .1-1a3.37 3.37 0 012.46 1.65c1.4 2.51 3.75 1.75 4.71 1.31a3.05 3.05 0 011.07-2.19c-3.53-.44-7.27-1.86-7.27-8.11a6.64 6.64 0 011.6-4.38 5.84 5.84 0 01.13-4.37S9 6.24 12 8.32a16.92 16.92 0 014.06-.54 17 17 0 014.07.54c3.1-2.08 4.39-1.64 4.39-1.64a5.82 5.82 0 01.1 4.38 6.13 6.13 0 011.61 4.38c0 6.36-3.75 7.67-7.28 8.11A4.25 4.25 0 0120 26.62v4.49a.77.77 0 001.07.76A16.29 16.29 0 0032 16.32 16 16 0 0016.05 0z"/></symbol><symbol viewBox="0 0 29 32" id="google-play" xmlns="http://www.w3.org/2000/svg"><path d="M.75 31.55l13.88-14 4.9 4.94L3 31.74a2 2 0 01-2 0zm12.48-15.41L0 29.49V2.79zm8.27-5.52l6.5 3.63a2 2 0 010 3.5l-6.64 3.73L16 16.14zM.61.58A1.78 1.78 0 011 .27a2 2 0 012 0l16.7 9.34-5.07 5.12z"/></symbol><symbol viewBox="0 0 32 30.84" id="heart" xmlns="http://www.w3.org/2000/svg"><path d="M28 14.83l-12 14-12-14A8.44 8.44 0 014 4.2 6 6 0 018.54 2a6 6 0 014.55 2.2L15 6.4a1.34 1.34 0 002 0l1.89-2.2a5.82 5.82 0 019.11 0 8.44 8.44 0 010 10.63z" fill="none" stroke="currentColor" stroke-linejoin="round" stroke-width="4"/></symbol><symbol viewBox="0 0 32 32" id="instagram" xmlns="http://www.w3.org/2000/svg"><path d="M3 10v12a7.07 7.07 0 007 7h12a7.07 7.07 0 007-7V10a7.07 7.07 0 00-7-7H10a7.07 7.07 0 00-7 7zm-3 0A9.81 9.81 0 0110 0h12a9.81 9.81 0 0110 10v12a9.81 9.81 0 01-10 10H10A9.81 9.81 0 010 22zm16 10.71A4.71 4.71 0 1011.29 16 4.66 4.66 0 0016 20.71zm0 2.82A7.53 7.53 0 1123.53 16 7.55 7.55 0 0116 23.53zm9.41-15.06a1.88 1.88 0 01-3.76 0 1.88 1.88 0 113.76 0z"/></symbol><symbol viewBox="0 0 32 30.48" id="linkedin" xmlns="http://www.w3.org/2000/svg"><path d="M32 18.72v11.76h-7V19.59c0-2.83-1-4.59-3.45-4.59a3.1 3.1 0 00-3.26 2.39 3.24 3.24 0 00-.22 1.53v11.56h-7V10h7v2.83a7 7 0 016.09-3.48c4.57.01 7.84 3.06 7.84 9.37zM3.92 0C1.52 0 0 1.52 0 3.48A3.5 3.5 0 003.7 7c2.4 0 3.92-1.56 3.92-3.52A3.37 3.37 0 003.92 0zM.44 30.48h7V10h-7z"/></symbol><symbol fill="none" viewBox="0 0 164 24" id="logo" xmlns="http://www.w3.org/2000/svg"><path d="M17.046 0l-5.748 7.659H7.694v3.911H13.3l5.967-7.713h.018v15.39H3.875V3.875h6.149L12.953 0H0v23.159h23.195V0h-6.149z" fill="#37C89A"/><path d="M33.84 19.11V3.794h10.024v2.638h-6.822v4.111h6.221v2.53h-6.221v6.02H33.84v.019zM55.91 19.11H45.757V3.794h10.151v2.638h-6.95v3.693h6.55v2.456h-6.55v3.857h6.95v2.674zM61.417 19.11h-3.202V3.794h6.33c3.53 0 5.55 1.856 5.55 4.876 0 1.964-1.02 3.656-2.784 4.348l3.22 6.076h-3.638l-2.857-5.604h-2.62v5.622zm0-7.93h2.82c1.619 0 2.565-.929 2.565-2.439 0-1.491-1-2.437-2.584-2.437h-2.783v4.875h-.018zM75.388 19.11h-3.202V3.794h6.331c3.53 0 5.55 1.856 5.55 4.876 0 1.964-1.02 3.656-2.784 4.348l3.22 6.076h-3.639l-2.856-5.604h-2.62v5.622zm0-7.93h2.82c1.62 0 2.565-.929 2.565-2.439 0-1.491-1-2.437-2.583-2.437h-2.783v4.875h-.019zM89.366 13.362c0 1.965 1.164 3.257 3.22 3.257s3.202-1.292 3.202-3.257V3.793h3.202v9.897c0 3.383-2.493 5.676-6.404 5.676-3.93 0-6.422-2.31-6.422-5.676V3.793h3.202v9.57zM117.761 19.11h-2.856V8.76h-.091l-4.166 10.187h-2.019L104.463 8.76h-.091v10.334h-2.856v-15.3h3.711l4.348 10.86h.091l4.348-10.86h3.711v15.318h.036zM126.694 3.793c3.147 0 5.312 2.092 5.312 5.24 0 3.147-2.237 5.239-5.457 5.239h-3.039v4.82h-3.201V3.794h6.385zm-3.184 7.968h2.329c1.837 0 2.911-.982 2.911-2.729 0-1.746-1.055-2.71-2.893-2.71h-2.347v5.44zM133.879 19.11V3.794h3.202v15.318h-3.202zM146.031 3.793c3.148 0 5.313 2.092 5.313 5.24 0 3.147-2.238 5.239-5.458 5.239h-3.02v4.82h-3.202V3.794h6.367zm-3.183 7.968h2.328c1.838 0 2.911-.982 2.911-2.729 0-1.746-1.055-2.71-2.892-2.71h-2.329v5.44h-.018zM163.371 19.11H153.22V3.794h10.151v2.638h-6.931v3.693h6.549v2.456h-6.549v3.857h6.949v2.674h-.018z" fill="#204B45"/></symbol><symbol viewBox="0 0 12 32" id="long-arrow-down-o" xmlns="http://www.w3.org/2000/svg"><path d="M11.67 26.28L6 31.33l-5.67-5M6 0v31.32" fill="none" stroke="currentColor" stroke-miterlimit="10"/></symbol><symbol viewBox="0 0 32 12" id="long-arrow-left-o" xmlns="http://www.w3.org/2000/svg"><path d="M5.67 11.67L.67 6 5.72.33M.68 6H32" fill="none" stroke="currentColor" stroke-miterlimit="10"/></symbol><symbol viewBox="0 0 32 12" id="long-arrow-right-o" xmlns="http://www.w3.org/2000/svg"><path d="M26.28.33l5 5.67-5 5.67M0 6h31.32" fill="none" stroke="currentColor" stroke-miterlimit="10"/></symbol><symbol viewBox="0 0 12 32" id="long-arrow-up-o" xmlns="http://www.w3.org/2000/svg"><path d="M.33 5.67L6 .67l5.67 5.05M6 .68V32" fill="none" stroke="currentColor" stroke-miterlimit="10"/></symbol><symbol viewBox="0 0 32 32" id="medium" xmlns="http://www.w3.org/2000/svg"><path d="M0 0v32h32V0zm26.73 7.53L25 9.22a.7.7 0 00-.19.57v12.05a.69.69 0 00.19.56l1.69 1.69v.38h-8.62v-.38l1.69-1.69c.19-.19.19-.19.19-.56v-10l-4.89 12.25h-.57L8.85 11.86v8.28c0 .38 0 .75.37.94l2.26 2.83v.37h-6.4v-.37l2.26-2.83a1.42 1.42 0 00.38-.94v-9.41a1.1 1.1 0 00-.19-.73L5.27 7.53v-.38h6.21l4.9 10.54 4.33-10.54h6z"/></symbol><symbol viewBox="0 0 32 30" id="star-o" xmlns="http://www.w3.org/2000/svg"><path fill="none" stroke-linejoin="round" stroke="currentColor" stroke-width="2" d="M16 1.11l3.47 10.65h11.34l-9.26 6.48 3.71 10.65L16 22.41l-9.26 6.48 3.71-10.65-9.26-6.48h11.34L16 1.11z"/></symbol><symbol viewBox="0 0 32 28" id="telegram" xmlns="http://www.w3.org/2000/svg"><path d="M.52 13.31L7.9 16.1l2.92 9.2a.87.87 0 001.4.41l4.17-3.34a1.09 1.09 0 011.53 0l7.38 5.43a.85.85 0 001.39-.55L32 1.05a.83.83 0 00-1.11-1L.52 11.64a.93.93 0 000 1.67zm9.75 1.26l14.47-8.92c.28-.14.56.28.28.42l-11.83 11a3.34 3.34 0 00-.84 1.54l-.41 3.06c0 .42-.56.42-.7 0l-1.53-5.43a1.33 1.33 0 01.56-1.67z"/></symbol><symbol viewBox="0 0 32 32" id="times-o" xmlns="http://www.w3.org/2000/svg"><path fill="none" stroke="currentColor" stroke-miterlimit="10" stroke-width="4" d="M1.5 1.5l29 29M1.5 30.5l29-29"/></symbol><symbol viewBox="0 0 32 26" id="twitter" xmlns="http://www.w3.org/2000/svg"><path d="M27.8 4.2a7.52 7.52 0 003-3.6 10.77 10.77 0 01-4.2 1.6A7.18 7.18 0 0021.8 0a6.49 6.49 0 00-6.4 6.6 4.4 4.4 0 00.2 1.6 19.64 19.64 0 01-13.4-7 6.64 6.64 0 00-1 3.2 6.65 6.65 0 003 5.6 7.41 7.41 0 01-3-.8 6.85 6.85 0 005.4 6.6H4.8a2.54 2.54 0 01-1.2-.2 6.62 6.62 0 006 4.6 13 13 0 01-8 2.8H0a19 19 0 0010 3c12 0 18.6-10 18.6-18.6v-.8A27.25 27.25 0 0032 3.2a41.87 41.87 0 01-4.2 1z"/></symbol><symbol viewBox="0 0 32 26" id="vimeo" xmlns="http://www.w3.org/2000/svg"><path d="M27.4.13C30.53.13 32 2 32 5.28V6c-.18 2.94-2.21 7-6.62 12-4.23 5.14-8.09 7.9-11 7.9-1.83 0-3.31-1.65-4.59-4.78l-1.51-4.44L7 12.26c-.93-3.12-2-4.59-2.95-4.59A7.24 7.24 0 001.47 9L0 7.11l2.39-2L4.6 3.25C6.62 1.6 8.28.68 9.2.68h.36c2.21 0 3.5 1.65 4 4.78.37 1.84.55 3.31.73 4.41a15.31 15.31 0 00.56 2.39c1.1 3 1.84 4.42 2.76 4.42.73 0 1.65-.92 2.94-2.94s2-3.5 2-4.42v-.55c0-1.29-.73-2-2.21-2a13 13 0 00-2.34.34c1.66-4.59 4.78-7 9-7z"/></symbol><symbol viewBox="0 0 32 18.5" id="vk" xmlns="http://www.w3.org/2000/svg"><path d="M31.83 16.61c-.88-1.91-2.71-3.26-4.15-4.72-.74-.74-1.15-1.42-.57-2.4a35.72 35.72 0 012.28-3.06 22.25 22.25 0 002.13-3.23c.24-.47.71-1.32.39-1.84C31.43.58 28.78 1 28 1s-2.49-.3-3.18.16c-.47.31-.63 1.14-.84 1.63-.3.68-.63 1.35-1 2a17.53 17.53 0 01-2.19 3.31c-.27.31-.77.93-1.21.92-.71 0-.85-1-.89-1.49a30.29 30.29 0 010-3.69c0-1 .37-2.73-.66-3.34S15 .09 13.83.14a5.28 5.28 0 00-2.64.52c-.14.09-.55.39-.55.57s.23.2.52.3a1.69 1.69 0 011.05.81 7.8 7.8 0 01.41 3.81c0 .72 0 2.51-.8 2.87-1.57.72-3.37-3.71-3.9-4.76-.34-.66-.66-1.32-1-2a2.13 2.13 0 00-.69-1.09 2.58 2.58 0 00-1.5-.24A34.72 34.72 0 00.91 1C-.68 1.16.34 2.67.76 3.58q.94 2 2 4c2.32 4.11 5.24 8.73 9.95 10.27a10.11 10.11 0 003.37.43 5.22 5.22 0 002-.11c1-.44.56-1.9.82-2.75.43-1.43 1.38-1.6 2.43-.61 1.67 1.53 2.67 3.63 5.18 3.54 1.32-.05 2.65 0 4-.06.97-.05 1.85-.55 1.32-1.68z"/></symbol><symbol viewBox="0 0 32 22.5" id="youtube" xmlns="http://www.w3.org/2000/svg"><path d="M31.33 3.55A4 4 0 0028.5.72C26 .05 16 .05 16 .05S6 .05 3.5.72A4 4 0 00.67 3.55a41.51 41.51 0 00-.67 7.7A41.51 41.51 0 00.67 19a4 4 0 002.83 2.78c2.49.67 12.5.67 12.5.67s10 0 12.5-.67A4 4 0 0031.33 19a41.51 41.51 0 00.67-7.7 41.51 41.51 0 00-.67-7.75zM12.8 16.05v-9.6l8.31 4.8z"/></symbol></svg>