<?xml version="1.0" standalone="no"?>
<!DOCTYPE svg PUBLIC "-//W3C//DTD SVG 20010904//EN"
 "http://www.w3.org/TR/2001/REC-SVG-20010904/DTD/svg10.dtd">
<svg version="1.0" xmlns="http://www.w3.org/2000/svg"
 width="700.000000pt" height="700.000000pt" viewBox="0 0 700.000000 700.000000"
 preserveAspectRatio="xMidYMid meet">
<metadata>
Created by potrace 1.11, written by Peter Selinger 2001-2013
</metadata>
<g transform="translate(0.000000,700.000000) scale(0.100000,-0.100000)"
fill="#000000" stroke="none">
<path d="M0 3500 l0 -3500 3500 0 3500 0 0 3500 0 3500 -928 0 -928 0 -69 -92
c-38 -51 -75 -100 -82 -108 -6 -8 -78 -103 -159 -210 -189 -251 -425 -562
-579 -765 -67 -88 -216 -284 -331 -437 -115 -152 -281 -371 -369 -487 l-160
-211 -531 0 -530 0 0 -592 1 -593 845 -3 846 -2 36 47 c20 27 62 82 94 124 33
41 111 142 174 225 63 82 120 156 127 164 7 8 67 87 135 175 68 88 143 187
168 219 67 87 167 216 356 461 93 121 201 261 239 310 39 50 156 203 262 340
106 138 196 249 200 248 4 -2 8 -1042 8 -2313 l0 -2310 -70 -1 c-81 0 -4553 0
-4575 1 -13 0 -15 264 -14 2316 0 1657 3 2317 11 2322 6 4 424 7 928 6 l917
-1 222 296 c121 163 226 303 233 311 42 52 381 507 396 531 l19 29 -1946 0
-1946 0 0 -3500z"/>
</g>
</svg>
